<svg width="24" height="24" viewBox="0 0 24 24" fill="none" xmlns="http://www.w3.org/2000/svg">
<path fill-rule="evenodd" clip-rule="evenodd" d="M13.617 5.41695C13.434 5.49595 13.207 5.71095 13.109 5.89595C12.995 6.11095 12.988 6.55495 13.095 6.75995C13.135 6.83695 14.088 7.82195 15.214 8.94995L17.26 11H10.577C3.06597 11 3.62997 10.977 3.30597 11.3C3.21031 11.3897 3.13406 11.4982 3.08194 11.6186C3.02982 11.739 3.00293 11.8688 3.00293 12C3.00293 12.1311 3.02982 12.2609 3.08194 12.3813C3.13406 12.5017 3.21031 12.6102 3.30597 12.7C3.62997 13.023 3.06597 13 10.577 13H17.26L15.214 15.05C14.088 16.178 13.135 17.163 13.095 17.24C12.988 17.446 12.995 17.889 13.11 18.106C13.223 18.321 13.493 18.55 13.698 18.605C13.948 18.673 14.317 18.628 14.503 18.509C14.685 18.391 20.429 12.639 20.543 12.46C20.603 12.366 20.62 12.266 20.62 12C20.62 11.699 20.608 11.642 20.514 11.5C20.455 11.412 19.078 10.014 17.454 8.39295C14.23 5.17795 14.439 5.35895 13.96 5.36195C13.8434 5.36169 13.7276 5.38026 13.617 5.41695Z" fill="#10161F"/>
</svg>
