<svg width="16" height="16" viewBox="0 0 16 16" fill="none" xmlns="http://www.w3.org/2000/svg">
<path fill-rule="evenodd" clip-rule="evenodd" d="M6.44863 3.37533C6.3561 3.40795 6.27252 3.46184 6.20463 3.53266C6.1407 3.59248 6.08973 3.66477 6.05486 3.74507C6.02 3.82537 6.00197 3.91197 6.00191 3.99952C6.00185 4.08706 6.01975 4.17369 6.0545 4.25404C6.08925 4.33439 6.14012 4.40675 6.20396 4.46666C6.41063 4.67266 6.33996 4.66666 8.49129 4.66666H10.3866L7.03396 8.01999C4.41529 10.64 3.67063 11.3993 3.62863 11.4933C3.57461 11.6167 3.55844 11.7533 3.58218 11.8859C3.60592 12.0185 3.66849 12.141 3.76196 12.238C3.85893 12.3315 3.98146 12.394 4.11404 12.4178C4.24661 12.4415 4.38325 12.4253 4.50663 12.3713C4.60063 12.3293 5.35996 11.5847 7.97996 8.96599L11.3333 5.61333V7.52199C11.3333 9.67933 11.3253 9.58733 11.5373 9.79999C11.6573 9.91933 11.8426 9.99999 12 9.99999C12.268 9.99999 12.5513 9.79199 12.626 9.53999C12.6873 9.33466 12.6873 3.99866 12.626 3.79333C12.593 3.69591 12.538 3.60741 12.4653 3.53469C12.3925 3.46196 12.304 3.40698 12.2066 3.37399C12.0073 3.31466 6.64129 3.31599 6.44863 3.37533Z" fill="#10161F"/>
</svg>
