<svg width="32" height="32" viewBox="0 0 32 32" fill="none" xmlns="http://www.w3.org/2000/svg">
<path d="M2.6665 16C2.6665 12.4638 4.07126 9.07241 6.57175 6.57193C9.07223 4.07144 12.4636 2.66669 15.9998 2.66669C19.5361 2.66669 22.9274 4.07144 25.4279 6.57193C27.9284 9.07241 29.3332 12.4638 29.3332 16C29.3332 19.5362 27.9284 22.9276 25.4279 25.4281C22.9274 27.9286 19.5361 29.3334 15.9998 29.3334C12.4636 29.3334 9.07223 27.9286 6.57175 25.4281C4.07126 22.9276 2.6665 19.5362 2.6665 16ZM22.2772 13.6107C22.4011 13.4867 22.4995 13.3395 22.5666 13.1776C22.6337 13.0156 22.6682 12.842 22.6682 12.6667C22.6682 12.4914 22.6337 12.3178 22.5666 12.1558C22.4995 11.9938 22.4011 11.8467 22.2772 11.7227C22.1532 11.5987 22.006 11.5004 21.8441 11.4333C21.6821 11.3662 21.5085 11.3317 21.3332 11.3317C21.1579 11.3317 20.9843 11.3662 20.8223 11.4333C20.6603 11.5004 20.5131 11.5987 20.3892 11.7227L14.6665 17.448L11.6105 14.3894C11.4865 14.2654 11.3394 14.167 11.1774 14.1C11.0154 14.0329 10.8418 13.9983 10.6665 13.9983C10.4912 13.9983 10.3176 14.0329 10.1556 14.1C9.99364 14.167 9.84647 14.2654 9.7225 14.3894C9.59854 14.5133 9.5002 14.6605 9.43311 14.8225C9.36602 14.9844 9.33149 15.158 9.33149 15.3334C9.33149 15.5087 9.36602 15.6823 9.43311 15.8442C9.5002 16.0062 9.59854 16.1534 9.7225 16.2774L13.7225 20.2774C13.8464 20.4015 13.9935 20.5 14.1555 20.5673C14.3175 20.6345 14.4911 20.6691 14.6665 20.6691C14.8419 20.6691 15.0155 20.6345 15.1775 20.5673C15.3395 20.5 15.4866 20.4015 15.6105 20.2774L22.2772 13.6107Z" fill="black"/>
</svg>
