<svg width="24" height="24" viewBox="0 0 24 24" fill="none" xmlns="http://www.w3.org/2000/svg">
<path fill-rule="evenodd" clip-rule="evenodd" d="M9.12018 2.42499C7.21282 3.00664 5.52014 4.1395 4.25518 5.68099L4.00918 5.98199L4.17018 6.17199C4.51818 6.58399 5.36518 7.22099 6.10018 7.62099C6.42118 7.79599 7.22018 8.15999 7.28418 8.15999C7.30218 8.15999 7.32818 8.09199 7.34218 8.00999C7.35618 7.92799 7.42918 7.57799 7.50418 7.23399C7.93118 5.28299 8.63718 3.57999 9.46218 2.50999C9.56018 2.38399 9.62618 2.28099 9.61018 2.28199C9.44562 2.32533 9.28223 2.37301 9.12018 2.42499ZM14.5712 2.55899C15.4802 3.75199 16.1742 5.55199 16.6412 7.92999C16.6652 8.05699 16.7022 8.15999 16.7222 8.15999C16.8142 8.15999 17.6502 7.76299 18.0912 7.50999C18.6675 7.18701 19.199 6.78997 19.6722 6.32899L20.0032 5.99799L19.7552 5.68899C19.2896 5.14026 18.7759 4.63424 18.2202 4.17699C17.2292 3.39099 16.0052 2.75199 14.8602 2.42199C14.7152 2.38062 14.5706 2.33829 14.4262 2.29499C14.3782 2.27999 14.4272 2.36999 14.5712 2.55899ZM11.6952 3.11799C11.0872 3.46699 10.3652 4.65899 9.87718 6.11999C9.58118 7.00699 9.20218 8.71099 9.29518 8.73999C9.38618 8.76899 10.1132 8.87799 10.5402 8.92699C11.0952 8.99099 12.9262 8.99099 13.4602 8.92699C13.6802 8.90099 14.0532 8.84899 14.2902 8.81199C14.7932 8.73299 14.7632 8.79099 14.6372 8.13199C14.1742 5.71099 13.2092 3.63699 12.3052 3.11799C12.0482 2.97099 11.9522 2.97099 11.6952 3.11799ZM2.85718 7.94999C2.54977 8.65026 2.3233 9.38334 2.18218 10.135C2.04318 10.887 2.04218 10.964 2.17518 11.121C2.57418 11.596 2.74818 11.774 3.13418 12.106C4.06918 12.908 5.21118 13.564 6.52018 14.052C6.72918 14.13 6.94618 14.205 7.00218 14.219L7.10418 14.245L7.06618 13.912C7.02018 13.515 7.00718 10.467 7.05118 10.31C7.07218 10.234 7.06718 10.2 7.03418 10.2C6.95218 10.2 5.87818 9.75899 5.50918 9.57399C4.66618 9.15199 3.77618 8.55399 3.23318 8.04599C3.14395 7.95638 3.04764 7.87411 2.94518 7.79999C2.93218 7.79999 2.89218 7.86799 2.85718 7.94999ZM20.8782 7.94299C20.6572 8.17399 20.1362 8.58299 19.6542 8.90299C19.0512 9.30399 18.3902 9.64499 17.6042 9.96299L16.9482 10.227L16.9642 10.584C16.9912 11.195 16.9692 13.523 16.9322 13.89C16.9122 14.082 16.9102 14.24 16.9252 14.24C16.9892 14.24 17.6862 13.979 18.1192 13.794C19.5682 13.172 20.8592 12.27 21.6552 11.32L21.9482 10.972L21.9122 10.696C21.8275 10.0898 21.691 9.49191 21.5042 8.90899C21.3092 8.32199 21.1062 7.82899 21.0522 7.81099C21.0332 7.80399 20.9542 7.86399 20.8782 7.94299ZM9.02618 11.093C8.97118 11.864 9.01018 13.098 9.12518 14.268C9.18118 14.834 9.09418 14.762 9.84118 14.858C11.3472 15.051 13.2662 15.026 14.5832 14.796L14.8272 14.754L14.8752 14.267C14.9922 13.069 15.0322 11.796 14.9742 11.057L14.9492 10.733L14.6592 10.784C13.7462 10.943 13.2582 10.978 12.0002 10.978C10.7422 10.978 10.2542 10.943 9.34118 10.784L9.05118 10.733L9.02618 11.093ZM2.20018 13.988C2.20018 14.005 2.25318 14.227 2.31818 14.48C2.85309 16.5543 4.03661 18.4035 5.69618 19.758C6.69218 20.568 8.04118 21.272 9.25018 21.612C9.44318 21.666 9.60018 21.704 9.60018 21.698C9.60018 21.691 9.49918 21.544 9.37618 21.372C8.64318 20.353 8.00918 18.866 7.62218 17.26L7.44818 16.546C7.42218 16.44 7.38818 16.423 6.96018 16.299C5.88818 15.99 4.75518 15.529 3.89718 15.053C3.3942 14.7703 2.90775 14.4591 2.44018 14.121C2.25618 13.98 2.20018 13.948 2.20018 13.988ZM21.4982 14.166C20.2292 15.097 18.6502 15.843 16.8602 16.357L16.5802 16.438L16.4082 17.149C15.9902 18.871 15.3812 20.318 14.6372 21.355C14.5525 21.4646 14.476 21.5802 14.4082 21.701C14.4152 21.708 14.6272 21.65 14.8802 21.573C16.431 21.1028 17.8449 20.2641 19.0012 19.1287C20.1575 17.9934 21.0218 16.595 21.5202 15.053C21.6572 14.626 21.8142 14.001 21.7902 13.977C21.7822 13.969 21.6502 14.054 21.4982 14.166ZM9.60018 16.894C9.60018 17.03 9.89918 17.979 10.1052 18.5C10.4962 19.484 10.9302 20.213 11.3722 20.626C11.8102 21.037 12.0262 21.083 12.3742 20.844C12.9972 20.416 13.6702 19.263 14.1392 17.82C14.3132 17.286 14.4202 16.885 14.3952 16.864C14.2294 16.8705 14.0642 16.8862 13.9002 16.911C12.9842 17.024 10.1372 16.986 9.67018 16.854C9.62618 16.842 9.60018 16.857 9.60018 16.894Z" fill="#10161F"/>
</svg>
