<svg width="16" height="16" viewBox="0 0 16 16" fill="none" xmlns="http://www.w3.org/2000/svg">
<path d="M13.7499 8.77502L15.6249 10.625L7.2999 14.6C7.2999 14.6 6.1999 15.1 5.6749 14.3C3.6249 11.1 13.7499 8.77502 13.7499 8.77502Z" fill="#547725"/>
<path d="M7.10016 12.275C7.10016 12.275 5.50016 12.825 5.80016 13.9C6.10016 15 7.37516 14.325 7.37516 14.325L15.2752 10.65C15.2752 10.65 14.8252 9.47495 15.6252 8.69995L7.10016 12.275Z" fill="#D9E3E8"/>
<path d="M8.4248 1.25L15.9998 8.625L7.0498 12.125L1.2998 3.175L8.4248 1.25Z" fill="#83BF4F"/>
<path d="M8.6499 2.92505L10.0999 4.47505L4.6749 6.42505L3.3999 4.45005L8.6499 2.92505Z" fill="white"/>
<path d="M15.2498 9.50002L9.9748 11.65L15.1748 9.27502L15.2498 9.50002ZM15.1748 10.15L9.5498 12.475L15.0748 9.90002L15.1748 10.15ZM15.2248 10.5L8.0498 13.625L15.1248 10.275L15.2248 10.5Z" fill="#94989B"/>
<path d="M5.675 14.3C4.8 12.475 7.05 12.15 7.05 12.15L1.3 3.17496C1.3 3.17496 0 3.14996 0 4.49996C0 5.04996 0.25 5.47496 0.25 5.47496L5.675 14.3Z" fill="#699635"/>
</svg>
