<svg width="24" height="24" viewBox="0 0 24 24" fill="none" xmlns="http://www.w3.org/2000/svg">
<path fill-rule="evenodd" clip-rule="evenodd" d="M11.2798 2.02398C11.1808 2.03298 10.8928 2.06798 10.6398 2.10198C6.90282 2.61198 3.79282 5.16698 2.54482 8.75098C1.88082 10.659 1.83482 12.928 2.42282 14.866C2.95986 16.6516 3.98441 18.252 5.38126 19.4873C6.77812 20.7225 8.49188 21.5435 10.3298 21.858L10.4798 21.884V15.007L9.80982 14.993C9.17382 14.981 9.12782 14.974 8.89582 14.867C8.56429 14.7015 8.29598 14.4322 8.13182 14.1C8.03482 13.893 8.01982 13.81 8.01982 13.5C8.01982 13.18 8.03382 13.111 8.14382 12.88C8.30082 12.55 8.54982 12.301 8.87982 12.144C9.13282 12.023 9.15682 12.02 9.80582 12.007L10.4708 11.993L10.4898 10.747C10.5068 9.64498 10.5188 9.46398 10.5928 9.19098C10.7838 8.48198 11.0388 8.03798 11.5378 7.53798C12.0388 7.03698 12.4998 6.77398 13.1828 6.59898C13.5878 6.49598 14.3428 6.45498 14.7018 6.51698C15.2318 6.60998 15.6528 6.92698 15.8728 7.39998C15.9608 7.58698 15.9758 7.67598 15.9758 7.99998C15.9758 8.32398 15.9608 8.41298 15.8728 8.59998C15.7677 8.82545 15.6104 9.02262 15.4139 9.17514C15.2174 9.32765 14.9873 9.43113 14.7428 9.47698C14.5461 9.50516 14.3476 9.51953 14.1488 9.51998C13.7958 9.51998 13.7898 9.52198 13.6558 9.65598L13.5198 9.79198V11.993L14.1898 12.007C14.8258 12.019 14.8718 12.026 15.1038 12.133C15.4128 12.276 15.7208 12.585 15.8678 12.9C15.9648 13.107 15.9798 13.19 15.9798 13.5C15.9798 13.81 15.9648 13.893 15.8678 14.1C15.7037 14.4322 15.4354 14.7015 15.1038 14.867C14.8718 14.974 14.8258 14.981 14.1898 14.993L13.5198 15.007V18.443C13.5198 20.334 13.5308 21.88 13.5438 21.88C13.5568 21.88 13.7498 21.843 13.9738 21.798C15.4319 21.5024 16.806 20.8859 17.9961 19.9932C19.1863 19.1005 20.1629 17.954 20.8548 16.637C22.4198 13.67 22.3628 9.99198 20.7058 7.09098C19.1588 4.38198 16.5788 2.60298 13.4928 2.11898C12.9978 2.04098 11.7108 1.98598 11.2798 2.02398Z" fill="#10161F"/>
</svg>
