<svg width="16" height="16" viewBox="0 0 16 16" fill="none" xmlns="http://www.w3.org/2000/svg">
<path d="M8.00398 9.61796C7.87898 9.61796 7.77898 9.51796 7.77898 9.39296V8.43996L6.56398 8.07646L5.70898 7.34646L7.77898 7.96646V7.82846C7.77898 7.32846 7.91898 6.83346 8.19898 6.41346C8.28265 6.2868 8.35182 6.15346 8.40648 6.01346L7.29848 5.68196L6.00848 4.82146L8.52548 5.57596C8.54448 5.45996 8.55398 5.34246 8.55398 5.22346V4.17346H9.00398V5.22346C9.00398 5.28146 9.00198 5.33913 8.99798 5.39646L10.9385 4.81646L9.43748 5.73896L8.91698 5.89396C8.84601 6.16238 8.73167 6.4174 8.57848 6.64896C8.34848 6.99896 8.22848 7.40896 8.22848 7.82896V8.32496L10.2935 7.70596L9.02548 8.55996L8.22898 8.79846V9.39346C8.22898 9.51846 8.12898 9.61796 8.00398 9.61796Z" fill="#44911B"/>
<path d="M8.70522 1.03602C7.78922 2.10102 7.76222 3.85702 8.64622 4.96052C8.68722 5.00952 8.75472 5.01502 8.79522 4.96552C9.71122 3.90052 9.73822 2.14502 8.85422 1.04152C8.81322 0.987023 8.74572 0.986523 8.70522 1.03602ZM5.32922 5.76302L3.57922 5.23802C3.28422 6.22302 3.84422 7.25802 4.82422 7.55802L6.57422 8.08302C6.87422 7.09802 6.31422 6.05802 5.32922 5.76302ZM12.0192 5.71802L10.2692 6.24302C9.28422 6.54302 8.72422 7.57802 9.02422 8.56302L10.7742 8.03802C11.7542 7.73802 12.3142 6.70302 12.0192 5.71802ZM6.06422 3.36802L4.31422 2.84302C4.02422 3.82802 4.57922 4.86302 5.56422 5.16302L7.31422 5.68802C7.45568 5.21461 7.40351 4.70442 7.16914 4.26944C6.93478 3.83447 6.53739 3.51027 6.06422 3.36802ZM12.4292 2.89802L10.6792 3.42302C10.4446 3.49282 10.2262 3.60835 10.0365 3.76296C9.84673 3.91756 9.68947 4.10818 9.57374 4.32384C9.45802 4.53949 9.38611 4.77592 9.36216 5.01949C9.33822 5.26306 9.36271 5.50896 9.43422 5.74302L11.1842 5.21802C12.1642 4.91802 12.7242 3.88302 12.4292 2.89802Z" fill="#86D72F"/>
<path d="M11 10C10.1349 9.35024 9.08197 8.99928 8 9C6.8745 9 5.8325 9.375 5 10L8 10.9845L11 10Z" fill="#7D4533"/>
<path d="M4.50391 11.998L4.89391 14.343C4.95891 14.723 5.28391 14.998 5.66391 14.998H10.3389C10.7189 14.998 11.0489 14.723 11.1089 14.343L11.5039 11.998L8.00391 11.203L4.50391 11.998Z" fill="#F3AD61"/>
<path d="M11.75 12H4.25C4.11 12 4 11.89 4 11.75V10.25C4 10.11 4.11 10 4.25 10H11.75C11.89 10 12 10.11 12 10.25V11.75C12 11.89 11.89 12 11.75 12Z" fill="#F3C07B"/>
</svg>
