<svg width="16" height="16" viewBox="0 0 16 16" fill="none" xmlns="http://www.w3.org/2000/svg">
<path fill-rule="evenodd" clip-rule="evenodd" d="M8.72 1.6925C8.885 1.8825 9.165 1.9175 9.37 1.7725C9.77 1.4875 10.29 1.9175 10.085 2.3575L8.875 3.7425H6.94L5.72 2.3425C5.515 1.8975 6.035 1.4675 6.435 1.7525L6.47 1.7775C6.675 1.9225 6.955 1.8825 7.115 1.6925L7.55 1.1725C7.59481 1.11849 7.65097 1.07502 7.71449 1.04518C7.77801 1.01535 7.84732 0.999878 7.9175 0.999878C7.98768 0.999878 8.05699 1.01535 8.12051 1.04518C8.18403 1.07502 8.24019 1.11849 8.285 1.1725L8.72 1.6925ZM2 10.6125C2 7.3425 4.65 4.6925 7.92 4.6925C11.19 4.6925 13.84 7.3425 13.835 10.6125C13.835 13.0275 11.875 14.9875 9.46 14.9875H6.375C3.96 14.9875 2 13.0275 2 10.6125Z" fill="#F3C07B"/>
<path fill-rule="evenodd" clip-rule="evenodd" d="M7.05988 3.73254H8.77988C9.08488 3.73254 9.33488 3.98254 9.33488 4.28754C9.33488 4.59254 9.08488 4.84254 8.77988 4.84254H7.05988C6.75488 4.84254 6.50488 4.59254 6.50488 4.28754C6.50488 3.98254 6.75488 3.73254 7.05988 3.73254ZM7.91988 9.67254H7.95488C8.70488 9.69254 9.30488 10.3025 9.30488 11.0525C9.30488 11.6925 8.86988 12.2275 8.27988 12.3875V12.9475C8.27988 13.1475 8.11988 13.3075 7.91988 13.3075C7.71988 13.3075 7.55988 13.1475 7.55988 12.9475V12.3875C7.26613 12.3085 7.00659 12.1349 6.82133 11.8936C6.63607 11.6523 6.53541 11.3567 6.53488 11.0525C6.53488 10.8525 6.69488 10.6925 6.89488 10.6925C7.09488 10.6925 7.25488 10.8525 7.25488 11.0525C7.25488 11.4225 7.54988 11.7175 7.91488 11.7175C8.27988 11.7175 8.57988 11.4175 8.57988 11.0525C8.57988 10.6875 8.27988 10.3875 7.91488 10.3875H7.87988C7.52019 10.3778 7.17848 10.2282 6.92733 9.97049C6.67619 9.71281 6.5354 9.36737 6.53488 9.00754C6.53488 8.36754 6.96988 7.83254 7.55988 7.67254V7.11254C7.55988 6.91254 7.71988 6.75254 7.91988 6.75254C8.11988 6.75254 8.27988 6.91254 8.27988 7.11254V7.67254C8.86988 7.83254 9.30488 8.36754 9.30488 9.00754C9.30488 9.20754 9.14488 9.36754 8.94488 9.36754C8.74488 9.36754 8.58488 9.20754 8.58488 9.00754C8.58488 8.64254 8.28488 8.34254 7.91988 8.34254C7.55488 8.34254 7.25488 8.64254 7.25488 9.00754C7.25488 9.37254 7.55488 9.67254 7.91988 9.67254Z" fill="#8C5543"/>
</svg>
