<svg width="24" height="24" viewBox="0 0 24 24" fill="none" xmlns="http://www.w3.org/2000/svg">
<path fill-rule="evenodd" clip-rule="evenodd" d="M7.33977 3.04594C6.64177 3.13494 5.81277 3.45194 5.19177 3.86794C4.03977 4.63894 3.21377 5.99594 3.04177 7.39894C2.98477 7.86094 2.98477 16.1389 3.04177 16.6009C3.14177 17.4179 3.50577 18.3299 3.99177 18.9809C4.3996 19.5205 4.911 19.9733 5.49602 20.3128C6.08104 20.6523 6.72792 20.8716 7.39877 20.9579C7.61377 20.9849 9.29577 20.9999 11.9998 20.9999C14.7038 20.9999 16.3858 20.9849 16.6008 20.9579C17.3966 20.8536 18.1575 20.5664 18.8238 20.1189C19.2288 19.8479 19.8478 19.2289 20.1188 18.8239C20.5663 18.1576 20.8534 17.3968 20.9578 16.6009C21.0148 16.1389 21.0148 7.86094 20.9578 7.39894C20.8534 6.60312 20.5663 5.84226 20.1188 5.17594C19.8478 4.77094 19.2288 4.15194 18.8238 3.88094C18.1575 3.43346 17.3966 3.1463 16.6008 3.04194C16.1808 2.98994 7.74677 2.99394 7.33977 3.04594ZM16.9748 6.63194C17.1327 6.71489 17.2648 6.83981 17.3563 6.99295C17.4479 7.14609 17.4955 7.32152 17.4938 7.49994C17.4938 7.87794 17.3028 8.18994 16.9558 8.37894C16.3058 8.73194 15.5058 8.24694 15.5058 7.49994C15.5021 7.32148 15.5482 7.14552 15.639 6.99184C15.7298 6.83816 15.8617 6.71283 16.0198 6.62994C16.3588 6.45394 16.6468 6.45494 16.9748 6.63194ZM13.0378 8.13794C15.0738 8.69994 16.3338 10.7279 15.9168 12.7739C15.5418 14.6179 14.0238 15.9099 12.1398 15.9879C10.2818 16.0649 8.63877 14.8479 8.13177 13.0169C8.03377 12.6629 8.02177 12.5529 8.02177 11.9999C8.02177 11.4489 8.03377 11.3369 8.12977 10.9889C8.56477 9.42094 9.76377 8.33794 11.3968 8.03794C11.637 8.01487 11.8786 8.00852 12.1198 8.01894C12.5448 8.03094 12.7408 8.05594 13.0378 8.13794ZM11.5798 10.0469C11.0368 10.1509 10.4518 10.6099 10.2068 11.1249C9.62877 12.3389 10.3738 13.7619 11.6948 13.9669C11.9531 14.0071 12.2168 13.9959 12.4708 13.9341C12.7248 13.8723 12.9641 13.761 13.1751 13.6067C13.3861 13.4523 13.5646 13.2579 13.7004 13.0346C13.8363 12.8112 13.9268 12.5633 13.9668 12.3049C14.0182 11.9958 13.9938 11.6788 13.8958 11.3811C13.7977 11.0834 13.6289 10.814 13.4038 10.5959C12.9128 10.1059 12.2768 9.91394 11.5798 10.0469Z" fill="#10161F"/>
</svg>
