<svg width="24" height="24" viewBox="0 0 24 24" fill="none" xmlns="http://www.w3.org/2000/svg">
<path fill-rule="evenodd" clip-rule="evenodd" d="M5.50316 3.04199C4.78398 3.17791 4.1353 3.56189 3.67016 4.12699C3.44516 4.40699 3.15916 4.97999 3.07416 5.31999C2.99416 5.64599 2.99416 18.354 3.07416 18.68C3.15916 19.02 3.44516 19.593 3.67016 19.873C3.95016 20.22 4.31216 20.501 4.74016 20.704C5.40116 21.017 4.99316 21 12.0002 21C19.0072 21 18.5992 21.017 19.2602 20.704C19.8993 20.4118 20.4119 19.8992 20.7042 19.26C21.0172 18.599 21.0002 19.007 21.0002 12C21.0002 4.99299 21.0172 5.40099 20.7042 4.73999C20.4167 4.11368 19.9183 3.60826 19.2962 3.31199C18.6392 2.99599 19.2912 3.02299 12.1202 3.01499C8.58916 3.01199 5.61116 3.02399 5.50316 3.04199ZM8.51216 7.14699C8.65821 7.23593 8.77898 7.36087 8.86291 7.50985C8.94684 7.65884 8.99113 7.82687 8.99153 7.99787C8.99193 8.16886 8.94844 8.3371 8.8652 8.48647C8.78197 8.63585 8.66179 8.76136 8.51616 8.85099C8.40178 8.91939 8.27491 8.96432 8.14297 8.98314C8.01102 9.00196 7.87665 8.99429 7.7477 8.96059C7.61876 8.92689 7.49782 8.86782 7.39196 8.78685C7.2861 8.70588 7.19744 8.60462 7.13116 8.48899C7.03616 8.32799 7.02016 8.25599 7.02016 7.99999C7.02016 7.74399 7.03616 7.67199 7.13116 7.51099C7.22114 7.34431 7.35865 7.20816 7.52621 7.11984C7.69377 7.03152 7.8838 6.99502 8.07216 7.01499C8.22827 7.01704 8.3807 7.06276 8.51216 7.14699ZM14.5202 9.06099C15.2242 9.25299 15.6592 9.49999 16.1412 9.97999C16.5302 10.368 16.7132 10.662 16.8852 11.18C16.9782 11.459 16.9792 11.472 16.9912 13.794C17.0052 16.443 17.0102 16.392 16.7022 16.7C16.5941 16.8092 16.4622 16.8918 16.3167 16.9414C16.1713 16.991 16.0164 17.0062 15.8641 16.9857C15.7118 16.9653 15.5664 16.9098 15.4392 16.8236C15.312 16.7374 15.2066 16.6228 15.1312 16.489L15.0202 16.3L15.0002 14.02L14.9802 11.74L14.8712 11.554C14.6472 11.174 14.0922 10.938 13.4872 10.967C13.2302 10.979 13.0892 11.008 12.9482 11.076C12.6912 11.2 12.3402 11.528 12.1532 11.816L12.0002 12.052V14.099C12.0002 16.417 12.0022 16.4 11.7002 16.702C11.5499 16.8529 11.3549 16.9512 11.1442 16.9822C10.9336 17.0132 10.7185 16.9753 10.5312 16.874C10.3016 16.746 10.1274 16.5377 10.0422 16.289C9.98516 16.084 9.98516 9.91599 10.0422 9.71099C10.1042 9.48799 10.3162 9.23699 10.5402 9.12199C10.6982 9.04099 10.7952 9.01999 11.0192 9.02099C11.3252 9.02299 11.4612 9.07599 11.6992 9.28399L11.8392 9.40699L11.9692 9.32999C12.2305 9.18893 12.5102 9.08493 12.8002 9.02099C13.1602 8.93999 14.1632 8.96299 14.5202 9.06099ZM8.34016 10.066C8.59316 10.153 8.84716 10.407 8.93416 10.66C8.99316 10.833 9.00016 11.142 9.00016 13.5C9.00016 16.487 9.00916 16.393 8.70016 16.702C8.54994 16.8529 8.35493 16.9512 8.14424 16.9822C7.93355 17.0132 7.71849 16.9753 7.53116 16.874C7.29864 16.7448 7.12333 16.5327 7.04016 16.28C7.01216 16.176 7.00216 15.221 7.00916 13.412L7.02016 10.7L7.13116 10.511C7.24597 10.3043 7.43117 10.1457 7.65305 10.064C7.87492 9.98236 8.11875 9.98306 8.34016 10.066Z" fill="#10161F"/>
</svg>
