<svg width="24" height="24" viewBox="0 0 24 24" fill="none" xmlns="http://www.w3.org/2000/svg">
<path fill-rule="evenodd" clip-rule="evenodd" d="M11.3399 2.02398C10.0259 2.15998 9.09093 2.41498 8.05993 2.91798C6.2544 3.79519 4.79627 5.25403 3.91993 7.05998C3.27793 8.38198 3.02193 9.51198 3.02493 11C3.02693 12.498 3.28993 13.582 4.00193 15.025C4.57393 16.187 5.35693 17.265 6.41993 18.356C7.66886 19.6229 9.0734 20.7264 10.5999 21.64C11.2239 22.018 11.4839 22.121 11.8799 22.149C12.4579 22.189 12.8719 22.008 14.1799 21.141C16.9239 19.323 18.9059 17.238 19.9999 15.02C20.4999 14.007 20.7499 13.229 20.9059 12.2C21.0019 11.57 21.0019 10.348 20.9059 9.71998C20.4489 6.72798 18.6269 4.23298 15.9439 2.92298C15.1189 2.51039 14.2329 2.23286 13.3199 2.10098C12.9109 2.03898 11.6619 1.99098 11.3399 2.02398ZM12.5809 8.06198C13.1628 8.17775 13.6974 8.46346 14.1169 8.883C14.5364 9.30254 14.8222 9.83706 14.9379 10.419C15.3649 12.482 13.4819 14.365 11.4189 13.938C10.8366 13.8231 10.3016 13.5377 9.88194 13.118C9.46226 12.6983 9.17682 12.1633 9.06193 11.581C8.68593 9.76398 10.1019 8.02298 11.9719 8.00298C12.1429 8.00098 12.4169 8.02798 12.5809 8.06198Z" fill="#10161F"/>
</svg>
