<svg width="24" height="24" viewBox="0 0 24 24" fill="none" xmlns="http://www.w3.org/2000/svg">
<path fill-rule="evenodd" clip-rule="evenodd" d="M3.58 4.04698C3.032 4.15198 2.452 4.60898 2.202 5.13498C2.075 5.40198 2.074 5.41098 2.146 5.48098C2.288 5.61898 11.976 13.68 12 13.68C12.024 13.68 21.712 5.61898 21.854 5.48098C21.926 5.41098 21.925 5.40198 21.798 5.13498C21.54 4.59198 20.966 4.14998 20.383 4.04298C20.075 3.98698 3.875 3.99098 3.58 4.04698ZM2 13.073C2 16.543 2.014 18.22 2.043 18.383C2.184 19.151 2.849 19.816 3.617 19.957C3.951 20.018 20.049 20.018 20.383 19.957C21.151 19.816 21.816 19.151 21.957 18.383C22 18.144 22.023 7.99998 21.98 7.99998C21.969 7.99998 19.905 9.71198 17.394 11.805C14.151 14.508 12.763 15.641 12.604 15.715C12.411 15.805 12.327 15.82 12 15.82C11.673 15.82 11.589 15.805 11.396 15.715C11.237 15.641 9.849 14.508 6.606 11.805C5.08288 10.53 3.5542 9.26163 2.02 7.99998C2.009 7.99998 2 10.283 2 13.073Z" fill="#10161F"/>
</svg>
