<svg width="16" height="16" viewBox="0 0 16 16" fill="none" xmlns="http://www.w3.org/2000/svg">
<path d="M8.00357 12.0262C4.81482 12.035 1.50732 12.9425 1.50732 15.1587V15.5387H14.4998V15.1587C14.4998 12.9425 11.1923 12.035 8.00357 12.0262Z" fill="url(#paint0_radial_88_78)"/>
<path d="M6.86523 11.2987V13.9187C6.86523 14.5762 7.32773 15.11 7.89773 15.11H8.10398C8.67398 15.11 9.13648 14.5775 9.13648 13.9187V11.2987H6.86523Z" fill="#E59600"/>
<path d="M6.58252 12.7863L7.06377 15.5363H8.98752L9.41752 12.7863H6.58252Z" fill="#81D4FA"/>
<path d="M9.13482 12.0575C9.87482 12.1112 10.2248 12.175 10.2248 12.175L10.6161 13.0875L9.95982 13.6362L10.3136 14.4075L9.61607 15.5312H8.75732L9.13482 12.0575Z" fill="url(#paint1_linear_88_78)"/>
<path d="M6.86373 12.0575C6.12373 12.1112 5.77748 12.175 5.77748 12.175L5.38623 13.0875L6.04248 13.6362L5.68873 14.4075L6.38623 15.5312H7.24498L6.86373 12.0575Z" fill="url(#paint2_linear_88_78)"/>
<path d="M4.11768 13.0775C4.31393 12.975 4.54268 12.825 4.64893 12.7325C4.88893 12.5237 5.45768 11.9862 5.88143 12.365C6.33893 12.7662 5.86893 13.3987 5.68768 13.6612C5.59768 13.7925 5.52893 13.9375 5.47268 14.085" stroke="#03A9F4" stroke-width="0.375" stroke-miterlimit="10"/>
<path d="M3.72378 13.955C3.66253 13.965 3.59628 13.9912 3.53128 13.9287C3.48878 13.8875 3.43503 13.77 3.45003 13.6687C3.46503 13.5662 3.57878 13.5237 3.82128 13.42C4.01003 13.34 4.18378 13.2587 4.34128 13.1525L4.10628 12.86C4.10628 12.86 3.83503 13.0125 3.68753 13.07C3.42628 13.17 3.12878 13.2837 3.08003 13.6137C3.02753 13.9687 3.22253 14.2212 3.37253 14.335C3.49503 14.4287 3.61253 14.4737 3.72628 14.4812C3.90253 14.4925 4.02003 14.3775 4.02003 14.2C4.02003 14.0225 3.84628 13.9337 3.72378 13.955Z" fill="url(#paint3_linear_88_78)"/>
<path d="M4.62865 14.6337C4.6274 14.6962 4.61115 14.765 4.6824 14.82C4.7299 14.8562 4.85365 14.8925 4.95115 14.8637C5.0499 14.8337 5.07615 14.7162 5.14365 14.4612C5.19615 14.2637 5.25115 14.0787 5.33365 13.9075L5.65615 14.0975C5.65615 14.0975 5.54365 14.3875 5.50865 14.5425C5.4474 14.8162 5.3774 15.1262 5.0574 15.2212C4.71365 15.325 4.4349 15.1662 4.30115 15.035C4.19115 14.9262 4.1299 14.8175 4.10615 14.705C4.0699 14.5325 4.1674 14.3987 4.3424 14.3737C4.51865 14.35 4.63115 14.51 4.62865 14.6337Z" fill="url(#paint4_linear_88_78)"/>
<path d="M6.86502 11.7562C6.29752 11.7737 5.89377 12.0637 5.73877 12.2437L6.02252 12.4887C6.02627 12.485 6.32752 12.155 6.87252 12.1312L6.86502 11.7562ZM10.7825 12.8462C10.4788 12.1625 10.0088 11.9025 9.75627 11.8087C9.52502 11.7225 9.30002 11.6875 9.13502 11.6737V12.0575C9.27002 12.07 9.44627 12.0925 9.62627 12.16C9.82377 12.2337 10.1925 12.44 10.44 12.9987C10.7875 13.7812 10.875 13.985 10.8763 13.985L11.22 13.8362C11.22 13.8362 11.1325 13.6325 10.7825 12.8462Z" fill="#03A9F4"/>
<path d="M11.2749 15.1687C11.7582 15.1687 12.1499 14.777 12.1499 14.2937C12.1499 13.8105 11.7582 13.4187 11.2749 13.4187C10.7917 13.4187 10.3999 13.8105 10.3999 14.2937C10.3999 14.777 10.7917 15.1687 11.2749 15.1687Z" fill="url(#paint5_linear_88_78)"/>
<path d="M11.2749 14.7937C11.551 14.7937 11.7749 14.5698 11.7749 14.2937C11.7749 14.0176 11.551 13.7937 11.2749 13.7937C10.9988 13.7937 10.7749 14.0176 10.7749 14.2937C10.7749 14.5698 10.9988 14.7937 11.2749 14.7937Z" fill="#9E9E9E"/>
<path d="M11.4164 6.30371H4.58387C3.84762 6.30371 3.24512 6.94621 3.24512 7.72996C3.24512 8.51371 3.84762 9.15621 4.58387 9.15621H11.4151C12.1514 9.15621 12.7539 8.51371 12.7539 7.72996C12.7539 6.94621 12.1526 6.30371 11.4164 6.30371Z" fill="#E59600"/>
<path d="M8.00006 1.38379C5.82506 1.38379 3.81006 3.71004 3.81006 7.05879C3.81006 10.3888 5.88631 12.035 8.00006 12.035C10.1138 12.035 12.1901 10.3875 12.1901 7.05754C12.1901 3.71004 10.1751 1.38379 8.00006 1.38379Z" fill="#FFCA28"/>
<path d="M4.99753 6.34123C5.37128 5.81248 6.22003 5.76248 6.70628 6.15623C6.78378 6.21873 6.88628 6.30623 6.91628 6.40373C6.96628 6.56248 6.81378 6.68623 6.66503 6.64873C6.57003 6.62498 6.48128 6.57373 6.38753 6.54498C6.21628 6.49123 6.09253 6.47623 5.93878 6.47623C5.71128 6.47498 5.56503 6.50373 5.34878 6.59123C5.26003 6.62748 5.18753 6.68498 5.08628 6.64248C4.97128 6.59373 4.92753 6.44498 4.99753 6.34123ZM10.755 6.64123C10.7188 6.62498 10.6838 6.60498 10.6475 6.58998C10.425 6.49748 10.2988 6.47373 10.0575 6.47498C9.84503 6.47623 9.71878 6.50498 9.55253 6.56123C9.45128 6.59623 9.32253 6.68373 9.21003 6.64998C9.04503 6.59998 9.05003 6.41998 9.14003 6.30498C9.24753 6.16998 9.39503 6.06748 9.55128 5.99998C9.91378 5.84248 10.3563 5.86498 10.6975 6.06873C10.8088 6.13498 10.93 6.22623 10.9975 6.34123C11.0963 6.50373 10.9475 6.71998 10.755 6.64123Z" fill="#6D4C41"/>
<path d="M5.94486 7.98875C6.28521 7.98875 6.56111 7.70333 6.56111 7.35125C6.56111 6.99916 6.28521 6.71375 5.94486 6.71375C5.60452 6.71375 5.32861 6.99916 5.32861 7.35125C5.32861 7.70333 5.60452 7.98875 5.94486 7.98875Z" fill="#404040"/>
<path d="M10.0547 7.98875C10.3951 7.98875 10.671 7.70333 10.671 7.35125C10.671 6.99916 10.3951 6.71375 10.0547 6.71375C9.71438 6.71375 9.43848 6.99916 9.43848 7.35125C9.43848 7.70333 9.71438 7.98875 10.0547 7.98875Z" fill="#404040"/>
<path d="M9.05249 9.51752C8.65499 9.75377 7.34874 9.75377 6.95124 9.51752C6.72249 9.38127 6.48874 9.59002 6.58374 9.79752C6.67749 10.0013 7.38874 10.475 8.00499 10.475C8.62124 10.475 9.32374 10.0013 9.41749 9.79752C9.51124 9.59002 9.28124 9.38127 9.05249 9.51752Z" fill="#795548"/>
<path d="M8.48233 8.50756C8.46858 8.50256 8.45608 8.49881 8.44233 8.49756H7.55733C7.54358 8.49881 7.52983 8.50256 7.51733 8.50756C7.43733 8.54006 7.39358 8.62256 7.43108 8.71131C7.46858 8.80006 7.64483 9.04756 7.99983 9.04756C8.35483 9.04756 8.53108 8.79881 8.56858 8.71131C8.60608 8.62256 8.56233 8.54006 8.48233 8.50756Z" fill="#E59600"/>
<path d="M8.00019 0.503784H7.99519C2.31644 0.533784 3.48019 7.02128 3.48019 7.02128C3.48019 7.02128 3.73519 7.69003 3.85144 7.98503C3.86769 8.02753 3.93019 8.02253 3.94019 7.97878C4.06144 7.43628 4.49769 5.51253 4.71769 4.92753C4.78054 4.76086 4.89999 4.62158 5.05514 4.53406C5.2103 4.44655 5.39128 4.41636 5.56644 4.44878C6.12269 4.55003 7.01019 4.67503 7.98769 4.67503H8.00769C8.98519 4.67503 9.87269 4.55003 10.4289 4.44878C10.7914 4.38253 11.1489 4.58378 11.2777 4.92753C11.4964 5.51003 11.9302 7.42253 12.0527 7.97253C12.0627 8.01753 12.1252 8.02128 12.1414 7.97878L12.5139 7.02003C12.5164 7.02128 13.6802 0.533784 8.00019 0.503784Z" fill="#543930"/>
<path d="M12.5165 7.02128C12.5165 7.02128 13.6802 0.533784 8.00022 0.503784H7.99522C7.90647 0.503784 7.82022 0.506284 7.73522 0.510034C7.56647 0.517534 7.40272 0.530034 7.24522 0.548784H7.24022C7.22897 0.550034 7.21897 0.552534 7.20772 0.553784C2.42772 1.15503 3.48022 7.02128 3.48022 7.02128L3.85272 7.98128C3.86897 8.02378 3.93022 8.02003 3.94022 7.97503C4.06272 7.42628 4.49772 5.51128 4.71772 4.92878C4.78057 4.76211 4.90002 4.62283 5.05517 4.53532C5.21033 4.4478 5.39131 4.41761 5.56647 4.45003C6.12272 4.55128 7.01022 4.67628 7.98772 4.67628H8.00772C8.98522 4.67628 9.87272 4.55128 10.429 4.45003C10.7915 4.38378 11.149 4.58503 11.2777 4.92878C11.4977 5.51378 11.934 7.44128 12.054 7.98128C12.064 8.02628 12.1252 8.03003 12.1415 7.98753C12.2602 7.69253 12.5165 7.02128 12.5165 7.02128Z" fill="url(#paint6_radial_88_78)"/>
<defs>
<radialGradient id="paint0_radial_88_78" cx="0" cy="0" r="1" gradientTransform="matrix(-9.37683 0.0390701 0.0251785 5.07304 8.01782 15.4782)" gradientUnits="userSpaceOnUse">
<stop offset="0.559" stop-color="#F5F5F5"/>
<stop offset="1" stop-color="#C6C6C6"/>
</radialGradient>
<linearGradient id="paint1_linear_88_78" x1="9.6877" y1="14.6291" x2="9.6877" y2="12.1037" gradientUnits="userSpaceOnUse">
<stop offset="0.335" stop-color="#E0E0E0"/>
<stop offset="0.668" stop-color="#D0D0D0"/>
<stop offset="0.987" stop-color="#BDBDBD"/>
</linearGradient>
<linearGradient id="paint2_linear_88_78" x1="6.31623" y1="14.6291" x2="6.31623" y2="12.1037" gradientUnits="userSpaceOnUse">
<stop offset="0.335" stop-color="#E0E0E0"/>
<stop offset="0.668" stop-color="#D0D0D0"/>
<stop offset="0.987" stop-color="#BDBDBD"/>
</linearGradient>
<linearGradient id="paint3_linear_88_78" x1="4.2509" y1="13.0971" x2="3.07503" y2="14.4511" gradientUnits="userSpaceOnUse">
<stop stop-color="#757575"/>
<stop offset="1"/>
</linearGradient>
<linearGradient id="paint4_linear_88_78" x1="5.35152" y1="14.0531" x2="4.17565" y2="15.407" gradientUnits="userSpaceOnUse">
<stop stop-color="#757575"/>
<stop offset="1"/>
</linearGradient>
<linearGradient id="paint5_linear_88_78" x1="10.9819" y1="13.6745" x2="11.6538" y2="15.0963" gradientUnits="userSpaceOnUse">
<stop stop-color="#757575"/>
<stop offset="1"/>
</linearGradient>
<radialGradient id="paint6_radial_88_78" cx="0" cy="0" r="1" gradientUnits="userSpaceOnUse" gradientTransform="translate(7.99809 5.88722) scale(4.76162 5.37207)">
<stop offset="0.794" stop-color="#6D4C41" stop-opacity="0"/>
<stop offset="1" stop-color="#6D4C41"/>
</radialGradient>
</defs>
</svg>
