<svg width="24" height="24" viewBox="0 0 24 24" fill="none" xmlns="http://www.w3.org/2000/svg">
<path fill-rule="evenodd" clip-rule="evenodd" d="M5.69993 2.19897C5.14893 2.31897 4.19193 2.92197 3.57793 3.53697C2.81493 4.30097 2.32393 5.16697 2.01093 6.29997C1.90893 6.66997 1.90093 6.75397 1.90193 7.41997C1.90293 7.98797 1.92293 8.24997 1.99493 8.65997C2.53293 11.711 4.15593 14.63 6.76293 17.237C8.82193 19.296 11.0539 20.729 13.4349 21.52C14.5639 21.894 15.4589 22.069 16.4399 22.106C16.9369 22.125 17.0799 22.116 17.4399 22.042C19.2769 21.662 20.7709 20.513 21.5779 18.86C21.8619 18.279 21.8919 17.84 21.6799 17.39C21.4759 16.954 20.4829 15.92 19.5579 15.177C18.6849 14.477 17.1939 13.438 16.9149 13.336C16.6459 13.238 16.1519 13.248 15.8669 13.358C15.4879 13.504 15.2519 13.773 14.5349 14.876C14.1319 15.496 13.8559 15.88 13.7799 15.929C13.5389 16.081 13.2569 15.965 12.2849 15.31C10.6889 14.236 9.72393 13.266 8.70893 11.719C8.10893 10.805 8.01693 10.557 8.18993 10.325C8.23293 10.267 8.73393 9.87497 9.30193 9.45297C9.98893 8.94397 10.3819 8.62497 10.4709 8.50497C10.7449 8.13497 10.8319 7.61797 10.6969 7.16297C10.5969 6.82697 9.34293 5.01097 8.59593 4.11997C7.90193 3.29297 6.99693 2.47797 6.55693 2.28297C6.28268 2.1842 5.98814 2.15533 5.69993 2.19897Z" fill="#10161F"/>
</svg>
