<svg width="24" height="24" viewBox="0 0 24 24" fill="none" xmlns="http://www.w3.org/2000/svg">
<path fill-rule="evenodd" clip-rule="evenodd" d="M3.66701 3.06398C3.31301 3.17398 3.00001 3.59898 3.00001 3.96898C3.00001 4.33598 2.96901 4.29098 6.33301 8.77898L9.60301 13.141C9.62201 13.166 8.52301 14.453 6.88101 16.331C3.85601 19.789 3.96501 19.646 4.01201 20.107C4.04127 20.3668 4.17112 20.6048 4.37374 20.77C4.57635 20.9353 4.83563 21.0146 5.09601 20.991C5.51201 20.944 5.45001 21.006 8.24201 17.815C10.159 15.624 10.862 14.846 10.895 14.878C10.92 14.903 11.93 16.24 13.14 17.851C15.191 20.58 15.354 20.785 15.539 20.879L15.738 20.98H20.262L20.461 20.878C20.6555 20.7762 20.8104 20.6124 20.9011 20.4126C20.9919 20.2128 21.0133 19.9884 20.962 19.775C20.916 19.567 20.668 19.224 17.67 15.225C16.5798 13.769 15.4888 12.3137 14.397 10.859C14.378 10.834 15.476 9.54698 17.118 7.66998C20.021 4.35198 20 4.37898 20 3.99998C20 3.43198 19.465 2.94798 18.91 3.01398C18.479 3.06498 18.557 2.98698 15.758 6.18498C13.841 8.37598 13.138 9.15398 13.105 9.12198C12.3519 8.1346 11.6036 7.14359 10.86 6.14898C8.81001 3.42098 8.64601 3.21498 8.46101 3.12098L8.26201 3.01998L6.06101 3.01198C4.20101 3.00498 3.83001 3.01398 3.66701 3.06398ZM12.75 12L18 19H16.5L11.25 12L6.00001 4.99998H7.50001L12.75 12Z" fill="#10161F"/>
</svg>
